<?xml version="1.0" encoding="utf-8"?>
<!-- Generator: Adobe Illustrator 16.0.4, SVG Export Plug-In . SVG Version: 6.00 Build 0)  -->
<!DOCTYPE svg PUBLIC "-//W3C//DTD SVG 1.1//EN" "http://www.w3.org/Graphics/SVG/1.1/DTD/svg11.dtd">
<svg version="1.1" id="Layer_1" xmlns="http://www.w3.org/2000/svg" xmlns:xlink="http://www.w3.org/1999/xlink" x="0px" y="0px"
	 width="159.5px" height="159.5px" viewBox="176.25 176.25 159.5 159.5" enable-background="new 176.25 176.25 159.5 159.5"
	 xml:space="preserve">
<text transform="matrix(1 0 0 1 168.7832 543.8096)" fill="#FFFF00" font-family="'Verdana-Bold'" font-size="20">simpleicon.com</text>
<text transform="matrix(1 0 0 1 9.1934 567.8096)" fill="#FFFF00" font-family="'Verdana'" font-size="20">Collection Of Flat Icon, Symbols And Glyph Icons</text>
<g id="_x23_020201ff">
	<path fill="#020201" d="M247.937,206.907c3.952-3.763,9.574-5.034,14.876-5.192c5.607-0.051,11.214-0.02,16.821-0.018
		c0.022,5.916,0.025,11.834-0.001,17.75c-3.625-0.006-7.252,0.009-10.876-0.006c-2.299-0.144-4.658,1.599-5.076,3.877
		c-0.056,3.958-0.021,7.919-0.018,11.878c5.314,0.022,10.632-0.007,15.947,0.013c-0.389,5.727-1.101,11.428-1.933,17.106
		c-4.696,0.044-9.394-0.004-14.089,0.024c-0.042,16.892,0.021,33.781-0.033,50.672c-6.975,0.029-13.953-0.012-20.927,0.02
		c-0.132-16.893,0.011-33.795-0.073-50.688c-3.402-0.036-6.807,0.024-10.209-0.029c0.013-5.679,0.004-11.357,0.006-17.034
		c3.4-0.042,6.803,0.008,10.203-0.024c0.104-5.521-0.104-11.047,0.108-16.562C243.006,214.326,244.671,209.925,247.937,206.907z"/>
</g>
</svg>
