<?xml version="1.0" encoding="utf-8"?>
<!-- Generator: Adobe Illustrator 16.0.4, SVG Export Plug-In . SVG Version: 6.00 Build 0)  -->
<!DOCTYPE svg PUBLIC "-//W3C//DTD SVG 1.1//EN" "http://www.w3.org/Graphics/SVG/1.1/DTD/svg11.dtd">
<svg version="1.1" id="Layer_1" xmlns="http://www.w3.org/2000/svg" xmlns:xlink="http://www.w3.org/1999/xlink" x="0px" y="0px"
	 width="159.5px" height="159.5px" viewBox="176.25 176.25 159.5 159.5" enable-background="new 176.25 176.25 159.5 159.5"
	 xml:space="preserve">
<path id="github-5-icon" d="M256,207.583c24.271,0,43.918,19.642,43.918,43.917c0,24.271-19.643,43.918-43.918,43.918
	c-24.272,0-43.917-19.643-43.917-43.918C212.083,227.229,231.725,207.583,256,207.583z M256,197c-30.1,0-54.5,24.4-54.5,54.5
	S225.9,306,256,306s54.5-24.4,54.5-54.5S286.1,197,256,197z M256,221.361c-17.066,0-30.902,13.836-30.902,30.901
	c0,13.652,8.854,25.237,21.134,29.322c1.544,0.286,2.042-0.669,2.042-1.486v-5.754c-8.595,1.87-10.386-3.644-10.386-3.644
	c-1.403-3.573-3.43-4.524-3.43-4.524c-2.804-1.916,0.211-1.878,0.211-1.878c3.104,0.219,4.738,3.186,4.738,3.186
	c2.756,4.723,7.227,3.357,8.993,2.567c0.276-1.997,1.076-3.359,1.961-4.132c-6.865-0.779-14.078-3.43-14.078-15.272
	c0-3.375,1.207-6.131,3.184-8.293c-0.323-0.78-1.379-3.923,0.296-8.178c0,0,2.596-0.83,8.5,3.169
	c2.467-0.684,5.11-1.029,7.736-1.042c2.625,0.013,5.273,0.357,7.74,1.042c5.9-3.999,8.49-3.169,8.49-3.169
	c1.682,4.255,0.623,7.398,0.304,8.178c1.981,2.163,3.182,4.918,3.182,8.293c0,11.87-7.229,14.483-14.11,15.247
	c1.106,0.959,2.119,2.842,2.119,5.725c0,4.134,0,7.464,0,8.479c0,0.822,0.496,1.785,2.062,1.483
	c12.272-4.092,21.114-15.67,21.114-29.319C286.901,235.197,273.064,221.361,256,221.361z"/>
</svg>
