<?xml version="1.0" encoding="utf-8"?>
<!-- Generator: Adobe Illustrator 16.0.4, SVG Export Plug-In . SVG Version: 6.00 Build 0)  -->
<!DOCTYPE svg PUBLIC "-//W3C//DTD SVG 1.1//EN" "http://www.w3.org/Graphics/SVG/1.1/DTD/svg11.dtd">
<svg version="1.1" id="Layer_1" xmlns="http://www.w3.org/2000/svg" xmlns:xlink="http://www.w3.org/1999/xlink" x="0px" y="0px"
	 width="159.5px" height="159.5px" viewBox="125.18 126.25 159.5 159.5" enable-background="new 125.18 126.25 159.5 159.5"
	 xml:space="preserve">
<path d="M222.571,193.814h24.789v38.054c0,9.27-7.514,16.784-16.783,16.784h-51.293c-9.269,0-16.784-7.515-16.784-16.784v-38.054
	h24.678c-2.526,3.549-4.016,7.886-4.016,12.574c0,11.992,9.721,21.714,21.713,21.714s21.714-9.722,21.714-21.714
	C226.588,201.7,225.097,197.363,222.571,193.814z M247.36,180.132v11.023h-27.016c-3.939-3.999-9.414-6.481-15.47-6.481
	c-6.057,0-11.531,2.481-15.469,6.481H162.5v-11.023c0-5.657,2.802-10.657,7.09-13.697v18.073h3.441v-19.951
	c0.781-0.314,1.59-0.57,2.423-0.764v20.715h3.441v-21.15c0.129-0.003,0.258-0.01,0.388-0.01h1.987v21.159h3.441v-21.159h45.865
	C239.846,163.349,247.36,170.863,247.36,180.132z M239.688,173.059c0-1.487-1.205-2.692-2.691-2.692h-9.073
	c-1.487,0-2.692,1.205-2.692,2.692v9.272c0,1.487,1.205,2.692,2.692,2.692h9.073c1.486,0,2.691-1.206,2.691-2.692V173.059
	L239.688,173.059z M188.146,206.388c0-5.008,2.215-9.505,5.713-12.574c1.227-1.076,2.611-1.975,4.115-2.659
	c2.105-0.958,4.44-1.496,6.899-1.496c2.461,0,4.795,0.538,6.9,1.496c1.504,0.684,2.888,1.583,4.115,2.659
	c3.498,3.068,5.713,7.566,5.713,12.574c0,9.223-7.503,16.728-16.729,16.728C195.65,223.116,188.146,215.611,188.146,206.388
	L188.146,206.388z M192.566,206.388c0,6.829,5.536,12.363,12.364,12.363c6.828,0,12.363-5.534,12.363-12.363
	s-5.535-12.363-12.363-12.363C198.102,194.024,192.566,199.56,192.566,206.388L192.566,206.388z"/>
</svg>
