<?xml version="1.0" encoding="utf-8"?>
<!-- Generator: Adobe Illustrator 16.0.4, SVG Export Plug-In . SVG Version: 6.00 Build 0)  -->
<!DOCTYPE svg PUBLIC "-//W3C//DTD SVG 1.1//EN" "http://www.w3.org/Graphics/SVG/1.1/DTD/svg11.dtd">
<svg version="1.1" id="Layer_1" xmlns="http://www.w3.org/2000/svg" xmlns:xlink="http://www.w3.org/1999/xlink" x="0px" y="0px"
	 width="159.5px" height="159.5px" viewBox="58.5 58.5 159.5 159.5" enable-background="new 58.5 58.5 159.5 159.5"
	 xml:space="preserve">
<g>
	<g>
		<path d="M116.65,176.061v-50.522h-16.211v50.522H116.65L116.65,176.061z M109.15,117.891c5.404,0,8.77-3.868,8.77-8.71
			c-0.089-4.931-3.366-8.711-8.682-8.711c-5.315,0-8.77,3.78-8.77,8.711c0,4.842,3.366,8.71,8.563,8.71H109.15L109.15,117.891z"/>
		<path d="M157.339,124.387c-8.593,0-12.284,4.843-14.646,8.209v-7.028h-16.24v50.493h16.24V147.3c0-1.477,0.119-2.953,0.562-3.986
			c1.181-2.953,3.838-5.995,8.326-5.995c5.876,0,8.239,4.518,8.239,11.132v27.608h16.24v-29.499
			C176.06,131.414,168.029,124.387,157.339,124.387z"/>
	</g>
	<path d="M185.863,81.571H91.256c-5.167,0-9.685,3.721-9.685,8.829v94.814c0,5.138,4.518,9.715,9.685,9.715h94.578
		c5.197,0,9.095-4.607,9.095-9.715V90.4C194.958,85.292,191.031,81.571,185.863,81.571z M184.918,185.509
		c-0.325,0-92.452,0-92.983,0s-0.916-0.413-0.916-0.915s0-92.659,0-92.983s0.295-0.591,0.591-0.591s93.013,0,93.308,0
		s0.59,0.295,0.59,0.591c0,6.88,0,92.983,0,93.308C185.509,185.185,185.243,185.509,184.918,185.509z"/>
</g>
</svg>
